<?xml version="1.0" encoding="iso-8859-1"?>
<!-- Generator: Adobe Illustrator 23.0.3, SVG Export Plug-In . SVG Version: 6.00 Build 0)  -->
<svg version="1.1" id="Layer_1" xmlns="http://www.w3.org/2000/svg" xmlns:xlink="http://www.w3.org/1999/xlink" x="0px" y="0px"
	 viewBox="0 0 340 230" style="enable-background:new 0 0 340 230;" xml:space="preserve">
<path style="fill:#2FD2B0;" d="M274.587,81.557c-3.289,0-6.482,0.646-9.492,1.918c-1.089,0.46-2.136,0.995-3.137,1.602V67.481
	h-10.324c-3.289,0-6.482,0.645-9.492,1.918c-2.904,1.228-5.511,2.985-7.748,5.223c-2.237,2.237-3.994,4.844-5.223,7.748
	c-1.273,3.01-1.918,6.203-1.918,9.492v80.664l11.793-11.793V91.862c0-6.444,4.868-11.773,11.119-12.503v70.255l0.041-0.041
	l11.793-11.793v-31.842c0-6.444,4.868-11.773,11.119-12.503v33.225l11.793-11.793v-33.31H274.587z"/>
<g>
</g>
<g>
</g>
<g>
</g>
<g>
</g>
<g>
</g>
<g>
</g>
</svg>
